# xmcd CD database file
#
# Track frame offsets:
#	182
#	18232
#	32472
#	48790
#	61567
#	78515
#	93367
#	109187
#	120367
#	134047
#	152995
#	164410
#
# Disc length: 2325 seconds
#
# Revision: 1
# Processed by: cddbd v1.4PL0 Copyright (c) Steve Scherf et al.
# Submitted via: CDex 1.50
#
DISCID=8c09130c
DTITLE=Merle Haggard - Best of the '90s Vol 1
DYEAR=2000
DGENRE=Country
TTITLE0=Ramblin' Fever
TTITLE1=Chores
TTITLE2=I Am A  Island
TTITLE3=What's New In New York City
TTITLE4=Today I Started Loving You Again (W/ Jeff Carson)
TTITLE5=Me And Crippled Soldiers
TTITLE6=When It Rain It Pours
TTITLE7=Blue Jungle
TTITLE8=Sometimes I Dream
TTITLE9=Untanglin' My Mind
TTITLE10=Sin City Blues
TTITLE11=Five Days A Week
EXTD=YEAR: 2000
EXTT0=
EXTT1=
EXTT2=
EXTT3=
EXTT4=
EXTT5=
EXTT6=
EXTT7=
EXTT8=
EXTT9=
EXTT10=
EXTT11=
PLAYORDER=
